<mxfile host="app.diagrams.net" modified="2023-11-26T13:25:30.612Z" agent="Mozilla/5.0 (Windows NT 10.0; Win64; x64) AppleWebKit/537.36 (KHTML, like Gecko) Chrome/119.0.0.0 Safari/537.36" version="22.1.4" etag="PQpgDTxMB_yPfCo6mg8b" type="github">
  <diagram name="PÃ¡gina-1" id="0bZPpoB7-okumQwL_Ai9">
    <mxGraphModel>
      <root>
        <mxCell id="0" />
        <mxCell id="1" parent="0" />
      </root>
    </mxGraphModel>
  </diagram>
</mxfile>
